<?xml version="1.0" encoding="utf-8"?>
<!-- Svg Vector Icons : http://www.onlinewebfonts.com/icon -->
<!DOCTYPE svg PUBLIC "-//W3C//DTD SVG 1.1//EN" "http://www.w3.org/Graphics/SVG/1.1/DTD/svg11.dtd">
<svg version="1.1" xmlns="http://www.w3.org/2000/svg" xmlns:xlink="http://www.w3.org/1999/xlink" x="0px" y="0px" viewBox="0 0 1000 1000" enable-background="new 0 0 1000 1000" xml:space="preserve">
<metadata> Svg Vector Icons : http://www.onlinewebfonts.com/icon </metadata>
<g><g transform="translate(0.000000,512.000000) scale(0.100000,-0.100000)"><path d="M3145.3,4783.7v-238.3l-119.1-32.7c-336.3-94.2-545.7-292.1-622.6-588c-86.5-340.1,76.9-711,386.2-868.6c155.7-80.7,290.2-113.4,528.4-130.7c424.7-30.7,576.5-128.7,576.5-370.9c0-119.1-59.6-201.8-201.8-272.9c-103.8-51.9-130.7-57.6-307.4-57.6c-251.7,0-365.1,36.5-468.9,157.6l-76.9,86.5l-207.5-63.4c-113.4-34.6-211.4-65.3-217.1-69.2c-17.3-15.4,117.2-249.8,178.7-309.4c98-94.2,274.8-190.2,418.9-228.7l132.6-32.7v-236.4v-236.3h230.6h230.6v238.3v238.3l101.8,23.1c344,82.6,609.1,353.6,643.7,659.1c50,426.6-180.6,762.9-611.1,885.8c-59.6,17.3-211.4,38.4-336.3,50c-263.3,19.2-390.1,57.7-470.8,138.4c-107.6,107.6-115.3,305.5-15.4,413.1c197.9,213.3,782.1,196,924.3-26.9c50-74.9,55.7-74.9,326.7,9.6l169.1,51.9L4279,4090c-109.5,221-324.7,372.8-618.7,438.1l-53.8,11.5v240.2V5020h-230.6h-230.6V4783.7z"/><path d="M7910.8,4900.9c-586.1-63.4-1070.3-117.2-1074.2-121.1c-23-25,63.4-101.8,505.4-461.2l491.9-397.8l-94.2-107.6c-197.9-228.7-736-782.1-1049.2-1081.8C4857.4,978.9,3003.1-164.4,1118-704.4c-345.9-99.9-428.5-161.4-445.8-330.5c-15.4-165.3,111.5-305.5,276.7-305.5c176.8,0,1006.9,269,1573.8,511.1C3648.7-350.8,4734.4,316,5845.1,1205.7c799.4,641.8,1593,1395.1,2319.3,2198.3c96.1,105.7,134.5,138.4,153.7,123c13.5-9.6,232.5-186.4,486.2-390.1c253.7-203.7,472.7-380.5,486.2-390.1c15.4-11.5,30.8-13.5,42.3-1.9c15.4,15.4-196,2179.1-221,2252.1C9100.2,5029.6,9111.8,5029.6,7910.8,4900.9z"/><path d="M7757.1,2008.9c-78.8-28.8-76.9,71.1-76.9-3389.6c0-3132.1,1.9-3320.5,34.6-3358.9c32.7-40.3,38.4-40.3,695.6-36.5l661,5.8l25,48c19.2,38.4,25,726.4,25,3349.3v3301.3l-48,46.1l-46.1,48l-620.7-1.9C8064.5,2020.4,7772.4,2014.7,7757.1,2008.9z"/><path d="M5387.8-222c-30.8-32.7-32.7-219.1-32.7-2277.1c0-2196.3,0-2242.5,36.5-2261.7c25-11.5,274.8-19.2,680.2-19.2c597.6,0,643.7,1.9,672.5,34.6c30.8,32.7,32.7,217.1,32.7,2267.5V-247l-42.3,28.8c-36.5,26.9-134.5,30.7-680.2,30.7C5462.7-187.5,5416.6-189.4,5387.8-222z"/><path d="M3041.5-1678.6c-26.9-26.9-30.7-192.2-30.7-1533.4c0-1433.5,1.9-1506.5,34.6-1535.3c32.7-28.8,107.6-32.7,674.5-32.7c403.5,0,651.4,7.7,676.4,19.2c36.5,19.2,36.5,57.6,36.5,1543c0,1160.6-5.8,1529.6-23.1,1546.9c-17.3,17.3-194.1,23.1-680.2,23.1C3156.8-1647.8,3066.5-1651.7,3041.5-1678.6z"/><path d="M697.2-2747c-26.9-38.4-30.7-163.3-30.7-985.8c0-720.6,5.8-953.1,25-989.6l25-48l661-5.8c657.2-3.8,662.9-3.8,697.5,36.5c30.7,38.4,32.7,115.3,32.7,995.4c0,832-3.8,958.9-30.7,997.3l-28.8,42.3h-661H726L697.2-2747z"/></g></g>
</svg>